<!--Scalable Vector Graphic-->
<svg xmlns="http://www.w3.org/2000/svg"
 xmlns:xlink="http://www.w3.org/1999/xlink"
 width="20px" height="23px">
<path fill-rule="evenodd"  fill="rgb(91, 203, 168)"
 d="M9.791,21.342 C11.048,21.342 12.224,21.150 13.263,20.795 L14.767,22.791 L18.609,22.791 L15.984,19.277 C18.076,17.568 19.265,14.656 19.265,10.965 C19.265,4.566 15.588,0.602 9.791,0.602 C3.994,0.602 0.289,4.566 0.289,10.965 C0.289,17.404 3.953,21.342 9.791,21.342 ZM9.804,17.979 C6.523,17.979 4.404,15.285 4.404,10.965 C4.404,6.672 6.523,3.951 9.791,3.951 C13.045,3.951 15.150,6.672 15.150,10.965 C15.150,13.193 14.589,14.984 13.578,16.078 L12.252,14.342 L8.396,14.342 L11.021,17.828 C10.625,17.937 10.228,17.979 9.804,17.979 Z"/>
</svg>